<svg xmlns="http://www.w3.org/2000/svg" viewBox="0 0 267 267"><g id="5" fill-rule="evenodd"><path fill="#000000" fill-opacity="1" class="c0" d="M100,0h142v8h8v17h9v8h8v17h-17v-8h-8v8h-8v17h8v8h8v17h-8v8h17v8h8v59h-42v-8h-25v-9h-41v-8h-25v-17h-26v-8h-16v-9h-9v-8h-16v-8h-25v-9h-9v-8h-16v-8h-9v-9h-8v-41h25v8h17v8h25v-8h8v8h8v-16h9v-9h8zM83,42h9v-9h-9zM92,50h8v-8h-8zM100,58h8v-8h-8zM108,67h9v-9h-9zM117,75h8v-8h-8zM125,83h17v-8h-17zM142,92h25v-9h-25zM167,100h33v-8h-33zM200,108h42v-8h-42zM67,134h25v16h-17v-8h-8zM234,209h25v8h-25v33h8v9h8v8h-16v-17h-9v17h-8v-25h-8v25h-17v-8h8v-25h9v-9h8v17h8v-25h9zM33,217h9v25h8v25h-25v-17h8zM125,242h9v17h-17v8h-9v-8h9v-9h8z" /><path fill="#312a35" fill-opacity="1" class="c1" d="M167,184h8v8h-8v8h-8v9h-9v8h-8v-8h8v-9h-25v-8h42z" /><path fill="#3f2948" fill-opacity="1" class="c2" d="M142,142h17v8h8v9h-17v-9h-8z" /><path fill="#414141" fill-opacity="1" class="c3" d="M0,8h25v9h17v8h25v-8h16v16h9v9h8v8h8v8h9v9h8v8h17v8h25v9h33v8h42v-8h17v8h8v8h-8v-8h-17v8h-42v-8h-33v-8h-25v-9h-17v-8h-8v-8h-9v-9h-8v-8h-8v-8h-9v-9h-8v-8h-8v8h-25v-8h-17v-8h-25zM0,83h8v9h17v8h8v8h-8v-8h-17v-8h-8z" /><path fill="#453b49" fill-opacity="1" class="c4" d="M125,125h9v17h8v8h-17zM175,150h9v9h-9z" /><path fill="#4b4a4d" fill-opacity="1" class="c5" d="M33,108h9v42h-9zM242,167h8v42h-8zM42,200h8v42h8v25h-8v-25h-8z" /><path fill="#544859" fill-opacity="1" class="c6" d="M125,150h9v9h-9zM167,150h8v9h9v16h-9v-16h-8zM184,184h8v25h-8v8h-9v-8h9z" /><path fill="#545256" fill-opacity="1" class="c7" d="M67,184h8v8h50v8h-8v17h-9v-17h-33v-8h-8zM125,217h9v8h-9z" /><path fill="#555555" fill-opacity="1" class="c8" d="M0,58h8v9h9v8h16v8h9v25h-9v-8h-8v-8h-17v-9h-8z" /><path fill="#58575a" fill-opacity="1" class="c9" d="M42,92h8v16h-8zM42,150h8v42h-8z" /><path fill="#594c5f" fill-opacity="1" class="c10" d="M150,209h9v8h-9z" /><path fill="#615f63" fill-opacity="1" class="c11" d="M58,134h9v8h-9z" /><path fill="#624940" fill-opacity="1" class="c12" d="M159,209h8v8h-8z" /><path fill="#64556b" fill-opacity="1" class="c13" d="M175,175h9v17h-9zM175,200h9v9h-9z" /><path fill="#67576e" fill-opacity="1" class="c14" d="M175,192h9v8h-9z" /><path fill="#6c5075" fill-opacity="1" class="c15" d="M134,150h16v9h9v8h-17v-8h-8z" /><path fill="#766780" fill-opacity="1" class="c16" d="M167,192h8v25h-8v-8h-8v-9h8z" /><path fill="#767478" fill-opacity="1" class="c17" d="M50,92h8v8h-8zM67,100h16v8h9v17h-17v-8h-8zM108,125h17v17h-8v-8h-9zM75,150h17v9h-9v8h-8zM184,150h16v59h9v25h-9v25h-8v-92h-8zM209,159h8v16h-8zM225,167h9v8h-9z" /><path fill="#77657f" fill-opacity="1" class="c18" d="M134,159h8v8h17v-8h16v25h-8v-17h-8v8h-17v-8h-8zM125,200h25v9h-8v8h-8v-8h-9z" /><path fill="#777579" fill-opacity="1" class="c19" d="M58,159h9v25h-9z" /><path fill="#80663f" fill-opacity="1" class="c20" d="M217,217h8v8h-8z" /><path fill="#807e82" fill-opacity="1" class="c21" d="M58,92h9v16h-9zM200,159h9v16h-9zM217,159h8v16h-8z" /><path fill="#8b8b8f" fill-opacity="1" class="c22" d="M75,209h33v8h-33v8h-8v-8h8zM117,217h8v8h9v-8h8v8h-8v17h8v17h8v8h-8v-8h-8v-17h-9v8h-8v9h-9v8h-8v-8h8v-9h9v-16h8v-9h-8zM167,217h8v8h-8zM250,217h9v8h-9zM259,234h8v8h-8z" /><path fill="#908e92" fill-opacity="1" class="c23" d="M50,100h8v142h-8zM67,117h8v8h8v9h-16zM108,134h9v8h8v17h-17zM184,167h8v17h-8zM234,167h8v42h-8v8h-17v8h-8v-16h-9v-17h9v-17h8v34h8v-34h9zM8,175h9v9h-9zM250,184h9v8h-9zM0,200h8v9h-8zM33,200h9v9h-9zM259,200h8v9h-8zM184,209h8v58h-17v-50h9zM225,250h9v17h-9z" /><path fill="#95809b" fill-opacity="1" class="c24" d="M125,159h9v8h8v8h17v-8h8v25h-42z" /><path fill="#98969a" fill-opacity="1" class="c25" d="M42,108h8v42h-8zM58,108h9v26h-9zM58,142h9v17h-9zM200,175h9v9h-9zM217,175h8v25h-8z" /><path fill="#a6a4a8" fill-opacity="1" class="c26" d="M67,192h8v25h-8v50h-9v-50h9z" /><path fill="#a88f69" fill-opacity="1" class="c27" d="M100,217h8v17h-8zM159,217h8v8h-8v9h-9v-9h9zM217,225h8v17h-8v25h-8v-25h8zM108,242h9v8h-9zM142,242h8v8h-8zM117,259h25v8h-25z" /><path fill="#ababb0" fill-opacity="1" class="c28" d="M259,242h8v25h-8z" /><path fill="#adabae" fill-opacity="1" class="c29" d="M58,184h9v25h-9z" /><path fill="#b5afc0" fill-opacity="1" class="c30" d="M83,159h9v8h-9z" /><path fill="#b5b4ba" fill-opacity="1" class="c31" d="M234,217h16v8h9v42h-9v-8h-8v-9h-8z" /><path fill="#cbccd3" fill-opacity="1" class="c32" d="M200,184h9v8h-9zM42,192h8v8h-8zM75,200h33v9h-33zM217,200h8v9h-8zM58,209h9v8h-9zM75,217h25v17h8v-17h9v8h8v9h-8v8h-9v17h-8v8h-33v-42h8zM142,217h17v8h16v42h-25v-8h-8v-9h8v-8h-16v-17h8zM150,234h9v-9h-9z" /><path fill="#cdc9d2" fill-opacity="1" class="c33" d="M92,117h16v25h-8v-8h-17v-9h9zM117,200h8v9h9v8h-17z" /><path fill="#f7f7f7" fill-opacity="1" class="c34" d="M0,92h8v8h9v75h-9v25h-8zM33,150h9v50h-9zM250,167h17v33h-8v-16h-9z" /><path fill="#ffffff" fill-opacity="1" class="c35" d="M0,0h100v8h-8v9h-25v8h-25v-8h-17v-9h-25zM242,0h25v33h-8v-8h-9v-17h-8zM242,42h8v8h17v50h-8v-8h-9v-17h-8v-8h-8v-17h8zM17,100h8v8h8v101h9v8h-9v33h-8v17h-25v-58h8v-25h9zM92,134h8v8h8v17h17v33h-50v-8h-8v-42h8v25h17zM250,192h9v17h8v25h-8v-25h-9z" /></g></svg>